<svg height="495pt" viewBox="0 -39 495.17517 495" width="495pt" xmlns="http://www.w3.org/2000/svg"><path d="m160.441406 327.179688 172.214844 1.820312h.074219c2.113281-.085938 4.109375-.996094 5.558593-2.539062 1.503907-1.59375 2.328126-3.710938 2.300782-5.898438v-117.5625h19.636718c3.332032.023438 6.324219-2.03125 7.496094-5.148438 1.171875-3.117187.273438-6.636718-2.25-8.808593l-112.492187-97.65625c-3.007813-2.609375-7.476563-2.609375-10.484375 0l-112.785156 97.675781c-2.523438 2.167969-3.425782 5.683594-2.253907 8.796875 1.171875 3.117187 4.164063 5.167969 7.492188 5.140625h17.636719v115.957031c-.050782 4.421875 3.4375 8.070313 7.855468 8.222657zm108.144532-15.21875-41-.378907v-46.582031h41zm56 .519531-40-.371094v-55.242187c-.070313-4.417969-3.710938-7.941407-8.128907-7.867188h-56.820312c-2.113281-.03125-4.152344.78125-5.664063 2.257812-1.511718 1.476563-2.367187 3.496094-2.386718 5.609376v54.566406l-43-.398438v-108.035156h156zm-76.859376-204.5625 91.082032 79.082031h-182.402344zm0 0"/><path d="m440.195312 149.566406c-1.480468-2.253906-3.996093-3.613281-6.691406-3.613281-2.695312 0-5.210937 1.359375-6.691406 3.613281l-53.675781 81.84375c-1.613281 2.496094-1.746094 5.667969-.351563 8.289063 1.386719 2.609375 4.085938 4.257812 7.042969 4.300781h43.460937c-6.765624 44.269531-29.183593 84.648438-63.183593 113.800781-32.769531 28.097657-73.902344 44.160157-112.863281 44.160157-25.398438 0-51.960938-6.878907-76.828126-19.84375-25.847656-13.503907-48.265624-32.734376-65.542968-56.230469-1.652344-2.390625-4.476563-3.695313-7.371094-3.410157-2.890625.289063-5.402344 2.125-6.550781 4.796876-1.152344 2.671874-.761719 5.757812 1.015625 8.058593 18.726562 25.46875 43.03125 46.316407 71.050781 60.949219 27.140625 14.148438 56.265625 21.628906 84.226563 21.628906 42.722656 0 87.65625-17.417968 123.277343-47.964844 37.597657-32.144531 62.125-76.949218 68.941407-125.945312h47.71875c2.953124-.046875 5.648437-1.695312 7.039062-4.300781s1.257812-5.757813-.347656-8.238281zm-45.554687 78.433594 38.863281-59.257812 38.863282 59.257812zm0 0"/><path d="m122.386719 178.296875c-1.386719-2.609375-4.082031-4.257813-7.039063-4.296875h-43.460937c6.765625-44.273438 29.183593-84.648438 63.183593-113.800781 32.765626-28.101563 73.898438-44.160157 112.863282-44.160157 25.398437 0 51.960937 6.878907 76.828125 19.84375 25.847656 13.5 48.265625 32.734376 65.539062 56.230469 1.65625 2.390625 4.480469 3.695313 7.375 3.40625 2.890625-.289062 5.402344-2.125 6.550781-4.796875 1.152344-2.667968.761719-5.753906-1.015624-8.054687-18.726563-25.46875-43.03125-46.316407-71.050782-60.949219-27.140625-14.152344-56.265625-21.6328125-84.226562-21.6328125-42.722656 0-87.65625 17.4218745-123.277344 47.9648435-37.601562 32.148438-62.125 76.953125-68.941406 125.949219h-47.71875c-2.953125.046875-5.648438 1.691406-7.039063 4.296875-1.390625 2.605469-1.257812 5.761719.347657 8.238281l53.675781 81.871094c1.476562 2.257812 3.988281 3.617188 6.6875 3.621094 2.695312.003906 5.210937-1.351563 6.695312-3.605469l53.675781-81.890625c1.609376-2.472656 1.746094-5.628906.347657-8.234375zm-60.714844 70.957031-38.863281-59.253906h77.726562zm0 0"/></svg>